<svg class="svgicon" width="24px" height="24px" viewBox="0 0 24 24" version="1.1" xmlns="http://www.w3.org/2000/svg" xmlns:xlink="http://www.w3.org/1999/xlink">
    <title>icon/RS/instagram-noir@3x</title>
    <g id="social_instagram-Symbols" stroke="none" stroke-width="1" fill="none" fill-rule="evenodd">
        <g id="social_instagram-RS" transform="translate(-2.000000, -110.000000)" fill="#f1f1f1">
            <path d="M15.1735975,109.998967 C15.2601488,109.999026 15.344054,109.9991 15.4254577,109.999193 L16.094455,110.000626 C16.9068088,110.00347 17.4214132,110.010581 17.8881243,110.028359 L18.2330817,110.043793 C18.5004703,110.057507 18.7728169,110.075396 19.0997169,110.09873 C23.2997169,110.29873 25.6987169,112.59873 25.8987169,116.89873 C25.9820503,117.982063 25.9959391,118.509841 25.998254,120.565396 L25.9982973,123.426124 C25.9961155,125.551175 25.9825879,126.008407 25.8987169,127.09873 C25.6987169,131.29873 23.3987169,133.69873 19.0997169,133.89873 C18.8397169,133.91873 18.6117169,133.93473 18.3869089,133.94753 L18.162098,133.959293 C17.5221021,133.989767 16.8306429,133.996693 15.4324716,133.998267 L12.3337728,133.998005 C11.1799973,133.996192 10.5515517,133.989848 10.0069476,133.967643 L9.79253103,133.957888 C9.5098137,133.943683 9.2342008,133.924536 8.89871693,133.89873 C4.69871693,133.69873 2.29971693,131.39873 2.09971693,127.09873 C2.07951693,126.83873 2.06335693,126.61073 2.05042893,126.38593 L2.03854833,126.16113 C2.01320107,125.634107 2.00398389,125.072241 2.00063219,124.109663 L1.99918452,123.432063 C1.999091,123.349841 1.99901619,123.265174 1.99895633,123.17793 L1.99895633,120.81953 C1.99901619,120.732285 1.999091,120.647619 1.99918452,120.565396 L2.00063219,119.887796 C2.00589915,118.375174 2.02565026,117.852063 2.09971693,116.89873 C2.29971693,112.69873 4.59971693,110.29873 8.89871693,110.09873 C9.20205026,110.075396 9.46182804,110.057507 9.72378359,110.043793 L9.94991693,110.03303 C10.4456503,110.011796 10.9939614,110.003707 11.8877836,110.000626 L12.5653836,109.999193 C12.6476058,109.9991 12.7322725,109.999026 12.8195169,109.998967 Z M15.1733581,111.998967 L12.8244224,111.998967 C12.7379554,111.999026 12.6541484,111.9991 12.5728604,111.999193 L12.1142347,112 C11.1093837,112.002541 10.5430573,112.010163 10.0287579,112.03303 L9.81040244,112.043793 C9.55674137,112.057507 9.30228359,112.075396 8.99871693,112.09873 C5.79971693,112.19873 4.19871693,113.69873 4.09971693,116.99873 C4.02228359,117.995396 4.00421581,118.463063 4,120.114122 L3.99918452,120.572804 C3.999091,120.6541 3.99901619,120.737915 3.99895633,120.824389 L3.99895633,123.17307 C3.99901619,123.259544 3.999091,123.343359 3.99918452,123.424656 L4,123.883337 C4.00274944,124.960115 4.01139056,125.533559 4.03854833,126.07867 L4.05042893,126.29633 C4.06335693,126.51473 4.07951693,126.73873 4.09971693,126.99873 C4.19871693,130.19873 5.69871693,131.79873 8.99871693,131.89873 C9.25891693,131.91873 9.48303693,131.93473 9.70150093,131.94753 L9.91920641,131.959293 C10.5370821,131.989767 11.1909651,131.996693 12.5728604,131.998267 L15.4249901,131.998267 C16.8072632,131.996693 17.4612029,131.989767 18.0788141,131.959293 L18.2964129,131.94753 C18.5147569,131.93473 18.7387169,131.91873 18.9987169,131.89873 C22.1987169,131.79873 23.7997169,130.29873 23.8987169,126.99873 C23.9187169,126.73873 23.9347169,126.51473 23.9475169,126.29633 L23.9592799,126.07867 C23.989754,125.460878 23.9966799,124.806693 23.998254,123.424656 L23.998254,120.572804 C23.9959391,118.540396 23.9820503,118.082063 23.8987169,116.99873 C23.7997169,113.79873 22.1987169,112.29873 18.9987169,112.09873 C18.6953836,112.075396 18.4411047,112.057507 18.1875681,112.043793 L17.9693059,112.03303 C17.4551933,112.010163 16.8888357,112.002541 15.8837358,112 L15.4249901,111.999193 C15.3436799,111.9991 15.2598495,111.999026 15.1733581,111.998967 Z M13.9987169,115.99873 C17.2997169,115.99873 19.9987169,118.69873 19.9987169,121.99873 C19.9987169,125.29873 17.2997169,127.99873 13.9987169,127.99873 C10.6987169,127.99873 7.99871693,125.29873 7.99871693,121.99873 C7.99871693,118.69873 10.6987169,115.99873 13.9987169,115.99873 Z M13.9987169,117.99873 C11.7997169,117.99873 9.99871693,119.79873 9.99871693,121.99873 C9.99871693,124.19873 11.7997169,125.99873 13.9987169,125.99873 C16.1987169,125.99873 17.9987169,124.19873 17.9987169,121.99873 C17.9987169,119.79873 16.1987169,117.99873 13.9987169,117.99873 Z M20.5989169,114.29863 C21.1989169,114.29863 21.6989169,114.79863 21.6989169,115.39863 C21.6989169,115.99863 21.1989169,116.49863 20.5989169,116.49863 C19.9989169,116.49863 19.4989169,115.99863 19.4989169,115.39863 C19.4989169,114.79863 19.9989169,114.29863 20.5989169,114.29863 Z" id="social_instagram-icon/RS/instagram-noir"></path>
        </g>
    </g>
</svg>