   <svg class="svgicon" xmlns="http://www.w3.org/2000/svg" width="24" height="24" viewBox="0 0 24 24">
        <g>
            <g fill="#f1f1f1">
                <path
                    d="M0 1.615C0 .723.723 0 1.615 0h20.77C23.276 0 24 .723 24 1.615v20.77c0 .891-.724 1.615-1.615 1.615H1.615A1.616 1.616 0 0 1 0 22.385zM5 19h3V8H5zM6.5 6.732c.967 0 1.75-.79 1.75-1.764S7.466 3.204 6.5 3.204s-1.75.79-1.75 1.764.784 1.764 1.75 1.764zM20 12.241c0-5.253-5.604-5.062-7-2.476V8h-3v11h3v-5.604c0-3.113 4-3.368 4 0V19h3z">
                </path>
            </g>
        </g>
    </svg>